# xmcd
#
# Track frame offsets: 
#        150
#        22445
#        39132
#        55692
#        67897
#        79537
#        97015
#        108425
#        122245
#        139620
#        158630
#        178785
#        193180
#        204307
#
# Disc length: 2977 seconds
#
# Revision: 0
# Processed by: cddbd v1.5PL3 Copyright (c) Steve Scherf et al.
# Submitted via: ExactAudioCopy v0.95a3
#
DISCID=ba0b9f0e
DTITLE=EASY GRIP - The End Of The World
DYEAR=1900
DGENRE=
TTITLE0=No Lip, Brat
TTITLE1=Your Own Way
TTITLE2=The End Of The World
TTITLE3=Boring Man
TTITLE4=Bastard (Trash And Burn)
TTITLE5=My Love Is True
TTITLE6=One Hundred Punks
TTITLE7=Manic-Depressive
TTITLE8=Radio
TTITLE9=Are You Satisfied?
TTITLE10=Today And Tomorrow
TTITLE11=Summer Girl
TTITLE12=No Feelings
TTITLE13=Air (With My True Heart)
EXTD=
EXTT0=
EXTT1=
EXTT2=
EXTT3=
EXTT4=
EXTT5=
EXTT6=
EXTT7=
EXTT8=
EXTT9=
EXTT10=
EXTT11=
EXTT12=
EXTT13=
PLAYORDER=
